<svg xmlns="http://www.w3.org/2000/svg" width="44" height="44" viewBox="0 0 44 44">
  <g id="message-square-outline" transform="translate(22 22)">
    <g id="message-square-outline-2" data-name="message-square-outline" transform="translate(-22 -22)">
      <g id="message-square">
        <rect id="Rectangle_1549" data-name="Rectangle 1549" width="44" height="44" opacity="0"/>
        <circle id="Ellipse_249" data-name="Ellipse 249" cx="2" cy="2" r="2" transform="translate(20 18)"/>
        <circle id="Ellipse_250" data-name="Ellipse 250" cx="2" cy="2" r="2" transform="translate(27 18)"/>
        <ellipse id="Ellipse_251" data-name="Ellipse 251" cx="1.5" cy="2" rx="1.5" ry="2" transform="translate(13 18)"/>
        <path id="Path_2250" data-name="Path 2250" d="M32.883,3H7.45A5.45,5.45,0,0,0,2,8.45V35.7a1.816,1.816,0,0,0,2.743,1.562L12.9,32.321a1.817,1.817,0,0,1,1-.254H32.883a5.45,5.45,0,0,0,5.45-5.45V8.45A5.45,5.45,0,0,0,32.883,3ZM34.7,26.617a1.817,1.817,0,0,1-1.817,1.817H13.9a5.45,5.45,0,0,0-2.816.781l-5.45,3.27V8.45A1.817,1.817,0,0,1,7.45,6.633H32.883A1.817,1.817,0,0,1,34.7,8.45Z" transform="translate(1.633 2.45)"/>
      </g>
    </g>
  </g>
</svg>
