<svg xmlns="http://www.w3.org/2000/svg" width="24" height="24" viewBox="0 0 24 24">
  <g id="map-outline" transform="translate(12 12)">
    <g id="map-outline-2" data-name="map-outline" transform="translate(-12 -12)">
      <g id="map">
        <rect id="Rectangle_330" data-name="Rectangle 330" width="24" height="24" transform="translate(24 24) rotate(180)" opacity="0"/>
        <path id="Path_8941" data-name="Path 8941" d="M20.41,5.89l-4-1.8h-.82L12,5.7,8.41,4.09H8.36L8.24,4h-.6l-4,1.8A1,1,0,0,0,3,6.8V19a1,1,0,0,0,1.41.91L8,18.3l3.59,1.61h.05a.85.85,0,0,0,.72,0h.05L16,18.3l3.59,1.61A1,1,0,0,0,21,19V6.8a1,1,0,0,0-.59-.91ZM5,7.44l2-.89v10l-2,.89Zm4-.89,2,.89v10l-2-.89Zm4,.89,2-.89v10l-2,.89Zm6,10-2-.89v-10l2,.89Z"/>
      </g>
    </g>
  </g>
</svg>
