<svg xmlns="http://www.w3.org/2000/svg" xmlns:xlink="http://www.w3.org/1999/xlink" width="21.54" height="17.411" viewBox="0 0 21.54 17.411">
  <defs>
    <clipPath id="clip-path">
      <path id="Path_1337" data-name="Path 1337" d="M2673.54-3467.736a8.092,8.092,0,0,1-2.513.719,4.786,4.786,0,0,0,1.975-2.424,8.162,8.162,0,0,1-2.783,1.078,4.34,4.34,0,0,0-3.231-1.437,4.4,4.4,0,0,0-4.4,4.4,3.387,3.387,0,0,0,.089.987,12.393,12.393,0,0,1-9.155-4.667,4.059,4.059,0,0,0-.627,2.244,4.508,4.508,0,0,0,1.974,3.679,3.614,3.614,0,0,1-1.974-.539v.09a4.353,4.353,0,0,0,3.5,4.308,4.554,4.554,0,0,1-1.167.179,2.492,2.492,0,0,1-.807-.089,4.254,4.254,0,0,0,4.129,3.051,8.981,8.981,0,0,1-5.475,1.885,4.41,4.41,0,0,1-1.077-.089,12.569,12.569,0,0,0,6.731,1.973,12.451,12.451,0,0,0,12.565-12.564v-.539A10.638,10.638,0,0,0,2673.54-3467.736Z" transform="translate(-2652 3469.8)" fill="none"/>
    </clipPath>
    <clipPath id="clip-path-2">
      <path id="Path_1336" data-name="Path 1336" d="M1540-2550.67H3478.6V-5017H1540Z" transform="translate(-1540 5017)" fill="none"/>
    </clipPath>
  </defs>
  <g id="Group_2080" data-name="Group 2080" opacity="0.396" clip-path="url(#clip-path)">
    <g id="Group_2079" data-name="Group 2079" transform="translate(-1497.03 -2082.917)" clip-path="url(#clip-path-2)">
      <path id="Path_1335" data-name="Path 1335" d="M2647-3474.8h35v30.874h-35Z" transform="translate(-1156.702 5550.986)" fill="#fff"/>
    </g>
  </g>
</svg>
